<svg aria-hidden="true" style="position:absolute;width:0;height:0;overflow:hidden" xmlns="http://www.w3.org/2000/svg"><defs><symbol id="icon-close" viewBox="0 0 11 11"><path d="M11 1.108 9.892 0 5.5 4.392 1.108 0 0 1.108 4.392 5.5 0 9.892 1.108 11 5.5 6.608 9.892 11 11 9.892 6.608 5.5 11 1.108z"/></symbol><symbol id="icon-smartphone" viewBox="0 0 7 11"><path fill="#fff" style="fill:var(--color1, #fff)" d="M5.844 0H1.031C.462 0 0 .463 0 1.031v8.938C0 10.538.463 11 1.031 11h4.813c.569 0 1.031-.463 1.031-1.031V1.031C6.875.462 6.412 0 5.844 0zM1.031.688h4.813c.19 0 .344.154.344.344v7.219h-5.5V1.032c0-.19.154-.344.344-.344zm4.813 9.625H1.031a.344.344 0 0 1-.344-.344V8.938h5.5v1.031c0 .19-.154.344-.344.344z"/><path fill="#fff" style="fill:var(--color1, #fff)" d="M1.618 9.445c.134.125.134.329 0 .454s-.352.125-.486 0-.134-.329 0-.454.352-.125.486 0z"/></symbol><symbol id="icon-smartphone1" viewBox="0 0 7 11"><path fill="#2196f3" style="fill:var(--color2, #2196f3)" d="M5.844 0H1.031C.462 0 0 .463 0 1.031v8.938C0 10.538.463 11 1.031 11h4.813c.569 0 1.031-.463 1.031-1.031V1.031C6.875.462 6.412 0 5.844 0zM1.031.688h4.813c.19 0 .344.154.344.344v7.219h-5.5V1.032c0-.19.154-.344.344-.344zm4.813 9.625H1.031a.344.344 0 0 1-.344-.344V8.938h5.5v1.031c0 .19-.154.344-.344.344z"/><path fill="#2196f3" style="fill:var(--color2, #2196f3)" d="M1.618 9.445c.134.125.134.329 0 .454s-.352.125-.486 0-.134-.329 0-.454.352-.125.486 0z"/></symbol><symbol id="icon-smartphone2" viewBox="0 0 7 11"><path fill="#757575" style="fill:var(--color3, #757575)" d="M5.844 0H1.031C.462 0 0 .463 0 1.031v8.938C0 10.538.463 11 1.031 11h4.813c.569 0 1.031-.463 1.031-1.031V1.031C6.875.462 6.412 0 5.844 0zM1.031.688h4.813c.19 0 .344.154.344.344v7.219h-5.5V1.032c0-.19.154-.344.344-.344zm4.813 9.625H1.031a.344.344 0 0 1-.344-.344V8.938h5.5v1.031c0 .19-.154.344-.344.344z"/><path fill="#757575" style="fill:var(--color3, #757575)" d="M1.618 9.445c.134.125.134.329 0 .454s-.352.125-.486 0-.134-.329 0-.454.352-.125.486 0z"/></symbol><symbol id="icon-e-mail" viewBox="0 0 15 11"><path fill="#fff" style="fill:var(--color1, #fff)" d="M13.292 0H1.375C.617 0 0 .617 0 1.375v8.25C0 10.383.617 11 1.375 11h11.917c.758 0 1.375-.617 1.375-1.375v-8.25C14.667.617 14.05 0 13.292 0zm0 .917c.062 0 .121.013.176.035L7.334 6.268 1.2.952a.446.446 0 0 1 .176-.035h11.917zm0 9.166H1.375a.458.458 0 0 1-.458-.458V1.921l6.116 5.301a.455.455 0 0 0 .6 0l6.116-5.301v7.704a.458.458 0 0 1-.458.458z"/></symbol><symbol id="icon-e-mail1" viewBox="0 0 15 11"><path fill="#2196f3" style="fill:var(--color2, #2196f3)" d="M13.292 0H1.375C.617 0 0 .617 0 1.375v8.25C0 10.383.617 11 1.375 11h11.917c.758 0 1.375-.617 1.375-1.375v-8.25C14.667.617 14.05 0 13.292 0zm0 .917c.062 0 .121.013.176.035L7.334 6.268 1.2.952a.446.446 0 0 1 .176-.035h11.917zm0 9.166H1.375a.458.458 0 0 1-.458-.458V1.921l6.116 5.301a.455.455 0 0 0 .6 0l6.116-5.301v7.704a.458.458 0 0 1-.458.458z"/></symbol><symbol id="icon-e-mail2" viewBox="0 0 15 11"><path fill="#757575" style="fill:var(--color3, #757575)" d="M13.292 0H1.375C.617 0 0 .617 0 1.375v8.25C0 10.383.617 11 1.375 11h11.917c.758 0 1.375-.617 1.375-1.375v-8.25C14.667.617 14.05 0 13.292 0zm0 .917c.062 0 .121.013.176.035L7.334 6.268 1.2.952a.446.446 0 0 1 .176-.035h11.917zm0 9.166H1.375a.458.458 0 0 1-.458-.458V1.921l6.116 5.301a.455.455 0 0 0 .6 0l6.116-5.301v7.704a.458.458 0 0 1-.458.458z"/></symbol><symbol id="icon-icon-facebook" viewBox="0 0 11 11"><path fill="#fff" style="fill:var(--color1, #fff)" d="M7.332 1.826h1.004V.077A12.96 12.96 0 0 0 6.873 0c-1.448 0-2.44.911-2.44 2.585v1.54H2.835V6.08h1.598V11h1.959V6.081h1.533l.243-1.955H6.391V2.779c0-.565.153-.952.94-.952z"/></symbol><symbol id="icon-icon-facebook1" viewBox="0 0 11 11"><path fill="#2196f3" style="fill:var(--color2, #2196f3)" d="M7.332 1.826h1.004V.077A12.96 12.96 0 0 0 6.873 0c-1.448 0-2.44.911-2.44 2.585v1.54H2.835V6.08h1.598V11h1.959V6.081h1.533l.243-1.955H6.391V2.779c0-.565.153-.952.94-.952z"/></symbol><symbol id="icon-icon-facebook2" viewBox="0 0 11 11"><path fill="#afb1b8" style="fill:var(--color4, #afb1b8)" d="M7.332 1.826h1.004V.077A12.96 12.96 0 0 0 6.873 0c-1.448 0-2.44.911-2.44 2.585v1.54H2.835V6.08h1.598V11h1.959V6.081h1.533l.243-1.955H6.391V2.779c0-.565.153-.952.94-.952z"/></symbol><symbol id="icon-icon-instagram" viewBox="0 0 11 11"><path fill="#fff" style="fill:var(--color1, #fff)" d="M10.989 3.234c-.026-.584-.12-.986-.256-1.334a2.693 2.693 0 0 0-.636-.976A2.714 2.714 0 0 0 9.123.29c-.35-.135-.75-.23-1.334-.256C7.2.006 7.013 0 5.52 0S3.84.007 3.253.032c-.584.026-.986.12-1.334.256a2.68 2.68 0 0 0-.976.636 2.714 2.714 0 0 0-.634.974c-.135.35-.23.75-.256 1.334-.028.589-.034.776-.034 2.269s.007 1.68.032 2.267c.026.584.12.986.256 1.334.14.37.357.701.636.976.275.279.608.496.974.634.35.135.75.23 1.334.256.586.026.773.032 2.267.032s1.68-.007 2.267-.032c.584-.026.986-.12 1.334-.256a2.811 2.811 0 0 0 1.609-1.609c.135-.35.23-.75.256-1.334.026-.587.032-.774.032-2.267s-.002-1.68-.028-2.267zm-.99 4.491c-.024.537-.114.827-.189 1.021A1.826 1.826 0 0 1 8.766 9.79c-.194.075-.486.165-1.021.189-.58.026-.754.032-2.222.032s-1.644-.007-2.222-.032c-.537-.024-.827-.114-1.021-.189a1.701 1.701 0 0 1-.632-.41 1.697 1.697 0 0 1-.41-.632c-.075-.194-.165-.486-.189-1.021-.026-.58-.032-.754-.032-2.222s.007-1.644.032-2.222c.024-.537.114-.827.189-1.021.088-.239.228-.455.413-.632.178-.183.393-.322.632-.41.194-.075.486-.165 1.021-.189.58-.026.754-.032 2.222-.032 1.47 0 1.644.007 2.222.032.537.024.827.114 1.021.189.239.088.455.228.632.41.183.178.322.393.41.632.075.194.165.486.189 1.021.026.58.032.754.032 2.222s-.007 1.64-.032 2.22z"/><path fill="#fff" style="fill:var(--color1, #fff)" d="M5.52 2.675a2.827 2.827 0 0 0 0 5.652 2.827 2.827 0 0 0 0-5.652zm0 4.659a1.833 1.833 0 1 1 0-3.667 1.833 1.833 0 0 1 0 3.667zM9.118 2.564a.66.66 0 1 1-1.32 0 .66.66 0 0 1 1.32 0z"/></symbol><symbol id="icon-icon-instagram1" viewBox="0 0 11 11"><path fill="#2196f3" style="fill:var(--color2, #2196f3)" d="M10.989 3.234c-.026-.584-.12-.986-.256-1.334a2.693 2.693 0 0 0-.636-.976A2.714 2.714 0 0 0 9.123.29c-.35-.135-.75-.23-1.334-.256C7.2.006 7.013 0 5.52 0S3.84.007 3.253.032c-.584.026-.986.12-1.334.256a2.68 2.68 0 0 0-.976.636 2.714 2.714 0 0 0-.634.974c-.135.35-.23.75-.256 1.334-.028.589-.034.776-.034 2.269s.007 1.68.032 2.267c.026.584.12.986.256 1.334.14.37.357.701.636.976.275.279.608.496.974.634.35.135.75.23 1.334.256.586.026.773.032 2.267.032s1.68-.007 2.267-.032c.584-.026.986-.12 1.334-.256a2.811 2.811 0 0 0 1.609-1.609c.135-.35.23-.75.256-1.334.026-.587.032-.774.032-2.267s-.002-1.68-.028-2.267zm-.99 4.491c-.024.537-.114.827-.189 1.021A1.826 1.826 0 0 1 8.766 9.79c-.194.075-.486.165-1.021.189-.58.026-.754.032-2.222.032s-1.644-.007-2.222-.032c-.537-.024-.827-.114-1.021-.189a1.701 1.701 0 0 1-.632-.41 1.697 1.697 0 0 1-.41-.632c-.075-.194-.165-.486-.189-1.021-.026-.58-.032-.754-.032-2.222s.007-1.644.032-2.222c.024-.537.114-.827.189-1.021.088-.239.228-.455.413-.632.178-.183.393-.322.632-.41.194-.075.486-.165 1.021-.189.58-.026.754-.032 2.222-.032 1.47 0 1.644.007 2.222.032.537.024.827.114 1.021.189.239.088.455.228.632.41.183.178.322.393.41.632.075.194.165.486.189 1.021.026.58.032.754.032 2.222s-.007 1.64-.032 2.22z"/><path fill="#2196f3" style="fill:var(--color2, #2196f3)" d="M5.52 2.675a2.827 2.827 0 0 0 0 5.652 2.827 2.827 0 0 0 0-5.652zm0 4.659a1.833 1.833 0 1 1 0-3.667 1.833 1.833 0 0 1 0 3.667zM9.118 2.564a.66.66 0 1 1-1.32 0 .66.66 0 0 1 1.32 0z"/></symbol><symbol id="icon-icon-instagram2" viewBox="0 0 11 11"><path fill="#afb1b8" style="fill:var(--color4, #afb1b8)" d="M10.989 3.234c-.026-.584-.12-.986-.256-1.334a2.693 2.693 0 0 0-.636-.976A2.714 2.714 0 0 0 9.123.29c-.35-.135-.75-.23-1.334-.256C7.2.006 7.013 0 5.52 0S3.84.007 3.253.032c-.584.026-.986.12-1.334.256a2.68 2.68 0 0 0-.976.636 2.714 2.714 0 0 0-.634.974c-.135.35-.23.75-.256 1.334-.028.589-.034.776-.034 2.269s.007 1.68.032 2.267c.026.584.12.986.256 1.334.14.37.357.701.636.976.275.279.608.496.974.634.35.135.75.23 1.334.256.586.026.773.032 2.267.032s1.68-.007 2.267-.032c.584-.026.986-.12 1.334-.256a2.811 2.811 0 0 0 1.609-1.609c.135-.35.23-.75.256-1.334.026-.587.032-.774.032-2.267s-.002-1.68-.028-2.267zm-.99 4.491c-.024.537-.114.827-.189 1.021A1.826 1.826 0 0 1 8.766 9.79c-.194.075-.486.165-1.021.189-.58.026-.754.032-2.222.032s-1.644-.007-2.222-.032c-.537-.024-.827-.114-1.021-.189a1.701 1.701 0 0 1-.632-.41 1.697 1.697 0 0 1-.41-.632c-.075-.194-.165-.486-.189-1.021-.026-.58-.032-.754-.032-2.222s.007-1.644.032-2.222c.024-.537.114-.827.189-1.021.088-.239.228-.455.413-.632.178-.183.393-.322.632-.41.194-.075.486-.165 1.021-.189.58-.026.754-.032 2.222-.032 1.47 0 1.644.007 2.222.032.537.024.827.114 1.021.189.239.088.455.228.632.41.183.178.322.393.41.632.075.194.165.486.189 1.021.026.58.032.754.032 2.222s-.007 1.64-.032 2.22z"/><path fill="#afb1b8" style="fill:var(--color4, #afb1b8)" d="M5.52 2.675a2.827 2.827 0 0 0 0 5.652 2.827 2.827 0 0 0 0-5.652zm0 4.659a1.833 1.833 0 1 1 0-3.667 1.833 1.833 0 0 1 0 3.667zM9.118 2.564a.66.66 0 1 1-1.32 0 .66.66 0 0 1 1.32 0z"/></symbol><symbol id="icon-icon-linkedin" viewBox="0 0 11 11"><path fill="#fff" style="fill:var(--color1, #fff)" d="M10.997 11H11V6.966c0-1.973-.425-3.494-2.732-3.494-1.109 0-1.854.609-2.157 1.186h-.032V3.657H3.891v7.344h2.278V7.364c0-.957.181-1.883 1.367-1.883 1.168 0 1.186 1.093 1.186 1.945v3.575h2.276zM.181 3.656h2.281V11H.181V3.656zM1.321 0C.592 0 0 .592 0 1.321s.592 1.333 1.321 1.333 1.321-.604 1.321-1.333S2.05 0 1.321 0z"/></symbol><symbol id="icon-icon-linkedin1" viewBox="0 0 11 11"><path fill="#2196f3" style="fill:var(--color2, #2196f3)" d="M10.997 11H11V6.966c0-1.973-.425-3.494-2.732-3.494-1.109 0-1.854.609-2.157 1.186h-.032V3.657H3.891v7.344h2.278V7.364c0-.957.181-1.883 1.367-1.883 1.168 0 1.186 1.093 1.186 1.945v3.575h2.276zM.181 3.656h2.281V11H.181V3.656zM1.321 0C.592 0 0 .592 0 1.321s.592 1.333 1.321 1.333 1.321-.604 1.321-1.333S2.05 0 1.321 0z"/></symbol><symbol id="icon-icon-linkedin2" viewBox="0 0 11 11"><path fill="#afb1b8" style="fill:var(--color4, #afb1b8)" d="M10.997 11H11V6.966c0-1.973-.425-3.494-2.732-3.494-1.109 0-1.854.609-2.157 1.186h-.032V3.657H3.891v7.344h2.278V7.364c0-.957.181-1.883 1.367-1.883 1.168 0 1.186 1.093 1.186 1.945v3.575h2.276zM.181 3.656h2.281V11H.181V3.656zM1.321 0C.592 0 0 .592 0 1.321s.592 1.333 1.321 1.333 1.321-.604 1.321-1.333S2.05 0 1.321 0z"/></symbol><symbol id="icon-icon-twitter" viewBox="0 0 11 11"><path fill="#fff" style="fill:var(--color1, #fff)" d="M11 2.089a4.727 4.727 0 0 1-1.299.356c.468-.279.824-.718.992-1.246-.436.26-.917.443-1.43.546a2.254 2.254 0 0 0-3.901 1.542c0 .179.015.351.052.514A6.38 6.38 0 0 1 .766 1.442a2.257 2.257 0 0 0 .693 3.014A2.226 2.226 0 0 1 .44 4.178v.025c0 1.096.782 2.006 1.807 2.216-.184.05-.384.074-.591.074-.144 0-.29-.008-.427-.038a2.276 2.276 0 0 0 2.107 1.571A4.531 4.531 0 0 1 0 8.957a6.35 6.35 0 0 0 3.459 1.012c4.15 0 6.419-3.438 6.419-6.417 0-.1-.003-.196-.008-.292A4.48 4.48 0 0 0 11 2.089z"/></symbol><symbol id="icon-icon-twitter1" viewBox="0 0 11 11"><path fill="#2196f3" style="fill:var(--color2, #2196f3)" d="M11 2.089a4.727 4.727 0 0 1-1.299.356c.468-.279.824-.718.992-1.246-.436.26-.917.443-1.43.546a2.254 2.254 0 0 0-3.901 1.542c0 .179.015.351.052.514A6.38 6.38 0 0 1 .766 1.442a2.257 2.257 0 0 0 .693 3.014A2.226 2.226 0 0 1 .44 4.178v.025c0 1.096.782 2.006 1.807 2.216-.184.05-.384.074-.591.074-.144 0-.29-.008-.427-.038a2.276 2.276 0 0 0 2.107 1.571A4.531 4.531 0 0 1 0 8.957a6.35 6.35 0 0 0 3.459 1.012c4.15 0 6.419-3.438 6.419-6.417 0-.1-.003-.196-.008-.292A4.48 4.48 0 0 0 11 2.089z"/></symbol><symbol id="icon-icon-twitter2" viewBox="0 0 11 11"><path fill="#afb1b8" style="fill:var(--color4, #afb1b8)" d="M11 2.089a4.727 4.727 0 0 1-1.299.356c.468-.279.824-.718.992-1.246-.436.26-.917.443-1.43.546a2.254 2.254 0 0 0-3.901 1.542c0 .179.015.351.052.514A6.38 6.38 0 0 1 .766 1.442a2.257 2.257 0 0 0 .693 3.014A2.226 2.226 0 0 1 .44 4.178v.025c0 1.096.782 2.006 1.807 2.216-.184.05-.384.074-.591.074-.144 0-.29-.008-.427-.038a2.276 2.276 0 0 0 2.107 1.571A4.531 4.531 0 0 1 0 8.957a6.35 6.35 0 0 0 3.459 1.012c4.15 0 6.419-3.438 6.419-6.417 0-.1-.003-.196-.008-.292A4.48 4.48 0 0 0 11 2.089z"/></symbol><symbol id="icon-Client1b_logo" viewBox="0 0 10 11"><path fill="#2196f3" style="fill:var(--color2, #2196f3)" d="m1.404 0 1.64 1.553L0 1.551v7.533h7.957v-2.88l1.638 1.551V0H1.404zm6.481 6.022L3.235 1.62h4.65v4.402zm-1.443 1.96H1.26V2.916h.366v4.723h4.816v.343zm-3.959 2.105-.191.394-.191-.394H1.94l.279.526v.306h.145v-.306l.279-.526h-.16zm.24.832.067-.194h.322l.068.194h.151l-.315-.832h-.13l-.314.832h.15zm.229-.655.121.345h-.241l.121-.345zm.762.325a.188.188 0 0 0-.031.106c0 .07.025.127.074.171s.115.065.198.065.153-.022.213-.067l.047.055h.161l-.122-.145a.418.418 0 0 0 .072-.252h-.121a.338.338 0 0 1-.035.153l-.161-.19.057-.041c.04-.029.069-.058.086-.087s.026-.061.026-.096c0-.053-.019-.097-.058-.132s-.088-.054-.149-.054c-.067 0-.12.019-.16.057s-.059.089-.059.154c0 .027.006.054.019.083s.036.063.068.104a.472.472 0 0 0-.124.115zm.376.184a.215.215 0 0 1-.131.047c-.042 0-.075-.012-.099-.036s-.037-.055-.037-.094c0-.045.023-.084.069-.119l.018-.013.182.214zm-.149-.369c-.039-.048-.059-.089-.059-.121 0-.028.008-.051.024-.069s.038-.027.065-.027c.025 0 .046.008.062.023s.025.034.025.055c0 .033-.012.06-.035.081l-.018.014-.063.043zm1.354.452a.3.3 0 0 0 .098-.208h-.144c-.008.059-.026.102-.054.127s-.071.038-.128.038c-.062 0-.109-.024-.142-.071s-.048-.116-.048-.206v-.074c.001-.089.018-.156.051-.202s.082-.069.145-.069c.054 0 .095.013.123.04s.046.069.053.129h.144c-.009-.091-.042-.162-.098-.211s-.13-.075-.222-.075c-.068 0-.128.016-.181.049s-.092.078-.119.138a.484.484 0 0 0-.042.207v.078c.001.077.015.144.043.202a.307.307 0 0 0 .292.181.338.338 0 0 0 .228-.074zm.849-.116a.516.516 0 0 0 .042-.215v-.046c0-.081-.015-.152-.043-.213a.318.318 0 0 0-.302-.19.335.335 0 0 0-.181.05c-.052.033-.093.08-.122.142s-.043.134-.043.215v.047c0 .08.015.15.043.211s.07.108.122.141c.053.033.113.049.181.049s.128-.016.181-.049a.314.314 0 0 0 .121-.142zm-.154-.471c.035.049.053.12.053.212v.043c0 .094-.017.165-.052.214s-.083.073-.147.073c-.063 0-.113-.025-.149-.075s-.053-.121-.053-.212v-.048c.001-.09.019-.159.054-.207s.084-.074.147-.074c.064 0 .113.025.148.074z"/></symbol><symbol id="icon-Client1_logo" viewBox="0 0 10 11"><path fill="#afb1b8" style="fill:var(--color4, #afb1b8)" d="m1.404 0 1.64 1.553L0 1.551v7.533h7.957v-2.88l1.638 1.551V0H1.404zm6.481 6.022L3.235 1.62h4.65v4.402zm-1.443 1.96H1.26V2.916h.366v4.723h4.816v.343zm-3.959 2.105-.191.394-.191-.394H1.94l.279.526v.306h.145v-.306l.279-.526h-.16zm.24.832.067-.194h.322l.068.194h.151l-.315-.832h-.13l-.314.832h.15zm.229-.655.121.345h-.241l.121-.345zm.762.325a.188.188 0 0 0-.031.106c0 .07.025.127.074.171s.115.065.198.065.153-.022.213-.067l.047.055h.161l-.122-.145a.418.418 0 0 0 .072-.252h-.121a.338.338 0 0 1-.035.153l-.161-.19.057-.041c.04-.029.069-.058.086-.087s.026-.061.026-.096c0-.053-.019-.097-.058-.132s-.088-.054-.149-.054c-.067 0-.12.019-.16.057s-.059.089-.059.154c0 .027.006.054.019.083s.036.063.068.104a.472.472 0 0 0-.124.115zm.376.184a.215.215 0 0 1-.131.047c-.042 0-.075-.012-.099-.036s-.037-.055-.037-.094c0-.045.023-.084.069-.119l.018-.013.182.214zm-.149-.369c-.039-.048-.059-.089-.059-.121 0-.028.008-.051.024-.069s.038-.027.065-.027c.025 0 .046.008.062.023s.025.034.025.055c0 .033-.012.06-.035.081l-.018.014-.063.043zm1.354.452a.3.3 0 0 0 .098-.208h-.144c-.008.059-.026.102-.054.127s-.071.038-.128.038c-.062 0-.109-.024-.142-.071s-.048-.116-.048-.206v-.074c.001-.089.018-.156.051-.202s.082-.069.145-.069c.054 0 .095.013.123.04s.046.069.053.129h.144c-.009-.091-.042-.162-.098-.211s-.13-.075-.222-.075c-.068 0-.128.016-.181.049s-.092.078-.119.138a.484.484 0 0 0-.042.207v.078c.001.077.015.144.043.202a.307.307 0 0 0 .292.181.338.338 0 0 0 .228-.074zm.849-.116a.516.516 0 0 0 .042-.215v-.046c0-.081-.015-.152-.043-.213a.318.318 0 0 0-.302-.19.335.335 0 0 0-.181.05c-.052.033-.093.08-.122.142s-.043.134-.043.215v.047c0 .08.015.15.043.211s.07.108.122.141c.053.033.113.049.181.049s.128-.016.181-.049a.314.314 0 0 0 .121-.142zm-.154-.471c.035.049.053.12.053.212v.043c0 .094-.017.165-.052.214s-.083.073-.147.073c-.063 0-.113-.025-.149-.075s-.053-.121-.053-.212v-.048c.001-.09.019-.159.054-.207s.084-.074.147-.074c.064 0 .113.025.148.074z"/></symbol><symbol id="icon-Client2b_logo" viewBox="0 0 8 11"><path fill="#2196f3" style="fill:var(--color2, #2196f3)" d="M3.62.621h-.029C3.547.618 3.502.617 3.458.616h-.096c-.084 0-.17.002-.255.006h-.019a5.977 5.977 0 0 0-2.225.568l-.092.044v4.684l.214-.073a7.596 7.596 0 0 1 2.307-.404v.615a8.121 8.121 0 0 0-.225.006h-.018a6.83 6.83 0 0 0-1.318.202 6.671 6.671 0 0 0-1.57.612V.869a6.295 6.295 0 0 1 1.647-.67 6.298 6.298 0 0 1 1.552-.2h.09c.108.003.214.008.313.015.261.018.52.06.773.123v.606A4.854 4.854 0 0 0 3.787.63L3.772.629C3.72.625 3.668.62 3.619.62zm1.066.619c.134.01.273.015.414.015a6.664 6.664 0 0 0 1.632-.209A6.725 6.725 0 0 0 8.301.434v5.9a6.33 6.33 0 0 1-1.647.67 6.394 6.394 0 0 1-1.552.2 4.714 4.714 0 0 1-1.177-.139V1.127a4.78 4.78 0 0 0 .762.114zm3.003.046-.214.072a7.254 7.254 0 0 1-2.373.406c-.14 0-.268-.004-.392-.012l-.171-.011v4.818l.147.013c.136.012.276.018.417.018a5.701 5.701 0 0 0 1.4-.181 5.898 5.898 0 0 0 1.094-.393l.092-.044V1.287zM.579 8.93a.324.324 0 0 0-.238-.097.345.345 0 0 0-.245.096.353.353 0 0 0-.094.241v.803a.374.374 0 0 0 .032.165.29.29 0 0 0 .19.165.44.44 0 0 0 .12.017.307.307 0 0 0 .13-.028c.04-.018.076-.043.107-.074s.054-.068.07-.108a.329.329 0 0 0 .026-.128v-.09h-.21v.072a.198.198 0 0 1-.012.072.125.125 0 0 1-.031.045.163.163 0 0 1-.088.031.104.104 0 0 1-.098-.043.194.194 0 0 1-.028-.108v-.748a.262.262 0 0 1 .026-.12c.011-.017.026-.03.044-.039s.038-.012.058-.009c.018-.001.036.003.052.011s.03.02.041.034a.175.175 0 0 1 .035.108v.069h.208v-.082a.37.37 0 0 0-.096-.253zM1.825 8.92a.373.373 0 0 0-.364-.065.332.332 0 0 0-.192.178.36.36 0 0 0-.03.155v.77a.39.39 0 0 0 .03.158.33.33 0 0 0 .081.108c.032.03.07.053.111.068s.083.022.125.023a.355.355 0 0 0 .317-.199.356.356 0 0 0 .03-.158v-.77a.355.355 0 0 0-.109-.267zm-.098 1.038c.002.021-.001.041-.008.06s-.019.037-.033.051c-.028.023-.063.036-.099.036s-.071-.013-.099-.036a.137.137 0 0 1-.041-.111v-.77c-.002-.021.001-.041.008-.06s.019-.037.033-.051c.028-.023.063-.036.099-.036s.071.013.099.036a.137.137 0 0 1 .041.111v.77zM3.462 10.302V8.845H3.26l-.265.771h-.004l-.267-.771h-.2v1.457h.208v-.886h.004l.204.627h.104l.205-.627h.004v.886h.208zM4.645 8.947a.299.299 0 0 0-.118-.08.485.485 0 0 0-.151-.023h-.309v1.457h.208v-.569h.107a.378.378 0 0 0 .187-.04.304.304 0 0 0 .114-.111.363.363 0 0 0 .048-.127c.008-.055.012-.11.011-.166a.854.854 0 0 0-.02-.208.306.306 0 0 0-.077-.134zm-.107.444a.185.185 0 0 1-.019.076.124.124 0 0 1-.053.051.206.206 0 0 1-.098.018h-.095v-.495h.107a.205.205 0 0 1 .094.018.117.117 0 0 1 .049.054.208.208 0 0 1 .018.081v.097c0 .034.002.069 0 .1h-.002zM5.629 8.845h-.17l-.321 1.457h.208l.061-.313h.283l.061.313h.208L5.63 8.845zm-.192.945.102-.528h.004l.102.528h-.208zM6.97 9.722h-.004l-.314-.878h-.2v1.457h.208v-.876h.004l.317.876h.195V8.844h-.208v.878zM8.239 8.845l-.167.579h-.004l-.167-.579h-.22l.285.841v.616h.208v-.616l.285-.841h-.22zM0 10.713h.1v.281h.068v-.281h.1v-.058H0v.058zM.841 10.656l-.131.338h.072l.028-.077h.135l.029.077h.074l-.134-.338H.842zm-.01.204.046-.125.046.125H.831zM1.673 10.869h.078v.044a.137.137 0 0 1-.08.029c-.014.001-.027-.002-.04-.007s-.023-.014-.032-.025a.14.14 0 0 1-.025-.088c0-.075.033-.113.097-.113.017-.002.034.003.048.013s.024.024.028.041l.067-.013c-.014-.066-.062-.1-.143-.1a.165.165 0 0 0-.118.044c-.017.017-.03.037-.039.06s-.012.047-.01.07a.188.188 0 0 0 .043.127.166.166 0 0 0 .129.05.204.204 0 0 0 .143-.054v-.133h-.147v.057zM2.522 10.656h-.068v.338h.237v-.058h-.169v-.281zM3.24 10.656h-.068v.338h.068v-.338zM3.942 10.882l-.139-.226h-.066v.338h.064v-.221l.136.221h.068v-.338h-.063v.226zM4.577 10.845h.169v-.058h-.169v-.074h.181v-.058h-.25v.338h.257v-.058h-.188v-.091zM6.116 10.789h-.133v-.133h-.068v.338h.068v-.148h.133v.148h.068v-.338h-.068v.133zM6.754 10.845h.169v-.058h-.169v-.074h.182v-.058h-.25v.338h.256v-.058h-.188v-.091zM7.62 10.845c.059-.009.089-.04.089-.094a.08.08 0 0 0-.033-.075.2.2 0 0 0-.099-.02h-.143v.338h.068v-.141h.013a.088.088 0 0 1 .042.008c.01.006.018.015.024.025l.074.108h.081l-.041-.066a.233.233 0 0 0-.075-.081zm-.068-.047h-.05v-.085h.053a.18.18 0 0 1 .069.008c.005.004.009.01.011.016s.004.013.003.019c0 .007-.002.013-.005.019s-.008.011-.013.015a.18.18 0 0 1-.069.008zM8.273 10.845h.169v-.058h-.169v-.074h.182v-.058h-.25v.338h.257v-.058h-.188v-.091z"/></symbol><symbol id="icon-Client2_logo" viewBox="0 0 8 11"><path fill="#afb1b8" style="fill:var(--color4, #afb1b8)" d="M3.62.621h-.029C3.547.618 3.502.617 3.458.616h-.096c-.084 0-.17.002-.255.006h-.019a5.977 5.977 0 0 0-2.225.568l-.092.044v4.684l.214-.073a7.596 7.596 0 0 1 2.307-.404v.615a8.121 8.121 0 0 0-.225.006h-.018a6.83 6.83 0 0 0-1.318.202 6.671 6.671 0 0 0-1.57.612V.869a6.295 6.295 0 0 1 1.647-.67 6.298 6.298 0 0 1 1.552-.2h.09c.108.003.214.008.313.015.261.018.52.06.773.123v.606A4.854 4.854 0 0 0 3.787.63L3.772.629C3.72.625 3.668.62 3.619.62zm1.066.619c.134.01.273.015.414.015a6.664 6.664 0 0 0 1.632-.209A6.725 6.725 0 0 0 8.301.434v5.9a6.33 6.33 0 0 1-1.647.67 6.394 6.394 0 0 1-1.552.2 4.714 4.714 0 0 1-1.177-.139V1.127a4.78 4.78 0 0 0 .762.114zm3.003.046-.214.072a7.254 7.254 0 0 1-2.373.406c-.14 0-.268-.004-.392-.012l-.171-.011v4.818l.147.013c.136.012.276.018.417.018a5.701 5.701 0 0 0 1.4-.181 5.898 5.898 0 0 0 1.094-.393l.092-.044V1.287zM.579 8.93a.324.324 0 0 0-.238-.097.345.345 0 0 0-.245.096.353.353 0 0 0-.094.241v.803a.374.374 0 0 0 .032.165.29.29 0 0 0 .19.165.44.44 0 0 0 .12.017.307.307 0 0 0 .13-.028c.04-.018.076-.043.107-.074s.054-.068.07-.108a.329.329 0 0 0 .026-.128v-.09h-.21v.072a.198.198 0 0 1-.012.072.125.125 0 0 1-.031.045.163.163 0 0 1-.088.031.104.104 0 0 1-.098-.043.194.194 0 0 1-.028-.108v-.748a.262.262 0 0 1 .026-.12c.011-.017.026-.03.044-.039s.038-.012.058-.009c.018-.001.036.003.052.011s.03.02.041.034a.175.175 0 0 1 .035.108v.069h.208v-.082a.37.37 0 0 0-.096-.253zM1.825 8.92a.373.373 0 0 0-.364-.065.332.332 0 0 0-.192.178.36.36 0 0 0-.03.155v.77a.39.39 0 0 0 .03.158.33.33 0 0 0 .081.108c.032.03.07.053.111.068s.083.022.125.023a.355.355 0 0 0 .317-.199.356.356 0 0 0 .03-.158v-.77a.355.355 0 0 0-.109-.267zm-.098 1.038c.002.021-.001.041-.008.06s-.019.037-.033.051c-.028.023-.063.036-.099.036s-.071-.013-.099-.036a.137.137 0 0 1-.041-.111v-.77c-.002-.021.001-.041.008-.06s.019-.037.033-.051c.028-.023.063-.036.099-.036s.071.013.099.036a.137.137 0 0 1 .041.111v.77zM3.462 10.302V8.845H3.26l-.265.771h-.004l-.267-.771h-.2v1.457h.208v-.886h.004l.204.627h.104l.205-.627h.004v.886h.208zM4.645 8.947a.299.299 0 0 0-.118-.08.485.485 0 0 0-.151-.023h-.309v1.457h.208v-.569h.107a.378.378 0 0 0 .187-.04.304.304 0 0 0 .114-.111.363.363 0 0 0 .048-.127c.008-.055.012-.11.011-.166a.854.854 0 0 0-.02-.208.306.306 0 0 0-.077-.134zm-.107.444a.185.185 0 0 1-.019.076.124.124 0 0 1-.053.051.206.206 0 0 1-.098.018h-.095v-.495h.107a.205.205 0 0 1 .094.018.117.117 0 0 1 .049.054.208.208 0 0 1 .018.081v.097c0 .034.002.069 0 .1h-.002zM5.629 8.845h-.17l-.321 1.457h.208l.061-.313h.283l.061.313h.208L5.63 8.845zm-.192.945.102-.528h.004l.102.528h-.208zM6.97 9.722h-.004l-.314-.878h-.2v1.457h.208v-.876h.004l.317.876h.195V8.844h-.208v.878zM8.239 8.845l-.167.579h-.004l-.167-.579h-.22l.285.841v.616h.208v-.616l.285-.841h-.22zM0 10.713h.1v.281h.068v-.281h.1v-.058H0v.058zM.841 10.656l-.131.338h.072l.028-.077h.135l.029.077h.074l-.134-.338H.842zm-.01.204.046-.125.046.125H.831zM1.673 10.869h.078v.044a.137.137 0 0 1-.08.029c-.014.001-.027-.002-.04-.007s-.023-.014-.032-.025a.14.14 0 0 1-.025-.088c0-.075.033-.113.097-.113.017-.002.034.003.048.013s.024.024.028.041l.067-.013c-.014-.066-.062-.1-.143-.1a.165.165 0 0 0-.118.044c-.017.017-.03.037-.039.06s-.012.047-.01.07a.188.188 0 0 0 .043.127.166.166 0 0 0 .129.05.204.204 0 0 0 .143-.054v-.133h-.147v.057zM2.522 10.656h-.068v.338h.237v-.058h-.169v-.281zM3.24 10.656h-.068v.338h.068v-.338zM3.942 10.882l-.139-.226h-.066v.338h.064v-.221l.136.221h.068v-.338h-.063v.226zM4.577 10.845h.169v-.058h-.169v-.074h.181v-.058h-.25v.338h.257v-.058h-.188v-.091zM6.116 10.789h-.133v-.133h-.068v.338h.068v-.148h.133v.148h.068v-.338h-.068v.133zM6.754 10.845h.169v-.058h-.169v-.074h.182v-.058h-.25v.338h.256v-.058h-.188v-.091zM7.62 10.845c.059-.009.089-.04.089-.094a.08.08 0 0 0-.033-.075.2.2 0 0 0-.099-.02h-.143v.338h.068v-.141h.013a.088.088 0 0 1 .042.008c.01.006.018.015.024.025l.074.108h.081l-.041-.066a.233.233 0 0 0-.075-.081zm-.068-.047h-.05v-.085h.053a.18.18 0 0 1 .069.008c.005.004.009.01.011.016s.004.013.003.019c0 .007-.002.013-.005.019s-.008.011-.013.015a.18.18 0 0 1-.069.008zM8.273 10.845h.169v-.058h-.169v-.074h.182v-.058h-.25v.338h.257v-.058h-.188v-.091z"/></symbol><symbol id="icon-Client3b_logo" viewBox="0 0 12 11"><path fill="#2196f3" style="fill:var(--color2, #2196f3)" d="m1.94 10.765.012.002c.004.001.007.004.01.006l.057.055a.466.466 0 0 1-.161.104.627.627 0 0 1-.228.037.62.62 0 0 1-.214-.035.44.44 0 0 1-.265-.249.498.498 0 0 1-.036-.194.451.451 0 0 1 .15-.346.519.519 0 0 1 .171-.099.682.682 0 0 1 .426-.003.546.546 0 0 1 .154.088l-.048.058c-.003.004-.007.008-.012.011s-.012.005-.019.004a.05.05 0 0 1-.021-.006l-.026-.016-.036-.02a.474.474 0 0 0-.481.058.333.333 0 0 0-.081.117.387.387 0 0 0-.029.154.4.4 0 0 0 .029.156.333.333 0 0 0 .198.188.433.433 0 0 0 .147.025.635.635 0 0 0 .087-.005.335.335 0 0 0 .188-.08.043.043 0 0 1 .027-.01zM3.589 10.49a.463.463 0 0 1-.147.343.49.49 0 0 1-.169.098.7.7 0 0 1-.434 0c-.063-.022-.12-.056-.168-.099s-.085-.095-.109-.151a.509.509 0 0 1 0-.387.445.445 0 0 1 .277-.247.686.686 0 0 1 .434 0c.063.022.121.056.169.099s.084.094.108.15c.026.062.04.128.039.194zm-.15 0a.412.412 0 0 0-.027-.155.324.324 0 0 0-.076-.116.33.33 0 0 0-.121-.073.502.502 0 0 0-.316 0 .338.338 0 0 0-.121.073.306.306 0 0 0-.077.116.458.458 0 0 0 0 .31.314.314 0 0 0 .198.189.517.517 0 0 0 .316 0 .338.338 0 0 0 .121-.073.324.324 0 0 0 .076-.116.412.412 0 0 0 .027-.155zM4.715 10.653l.015.035.016-.035a.29.29 0 0 1 .019-.034l.365-.576c.007-.01.014-.016.021-.018a.077.077 0 0 1 .03-.003h.108v.937h-.128v-.75l-.367.584c-.005.009-.012.016-.022.021s-.02.008-.031.008H4.72c-.011 0-.022-.003-.031-.008s-.017-.013-.021-.021l-.378-.588v.752h-.124v-.936h.108c.01-.001.02.001.03.003a.04.04 0 0 1 .02.018l.373.577c.007.011.014.022.019.033zM6.088 10.606v.351h-.143v-.936h.318a.71.71 0 0 1 .178.02.354.354 0 0 1 .126.058.234.234 0 0 1 .071.092.277.277 0 0 1 .024.12.265.265 0 0 1-.103.214.38.38 0 0 1-.126.062.625.625 0 0 1-.172.022l-.173-.002zm0-.1h.173a.412.412 0 0 0 .111-.014.24.24 0 0 0 .08-.04.173.173 0 0 0 .066-.141c.002-.026-.003-.052-.014-.076s-.028-.046-.05-.064a.305.305 0 0 0-.192-.05h-.173v.386zM8.007 10.959h-.113c-.011 0-.022-.003-.031-.009s-.014-.013-.019-.022l-.097-.226h-.488l-.101.226a.052.052 0 0 1-.018.021.05.05 0 0 1-.032.009h-.113l.428-.938h.149l.434.938zm-.707-.348h.403l-.17-.382a.58.58 0 0 1-.032-.088l-.016.049a.415.415 0 0 1-.016.04l-.169.381zM8.624 10.026c.009.004.016.01.021.017l.625.707v-.728h.128v.937h-.071c-.01 0-.02-.002-.029-.006s-.017-.01-.023-.017l-.624-.706V10.959h-.128v-.937h.076c.009 0 .018.001.026.004zM10.451 10.586v.372h-.143v-.372l-.395-.565h.128a.048.048 0 0 1 .031.008.076.076 0 0 1 .019.021l.247.364.026.043a.352.352 0 0 1 .018.04l.019-.04a.362.362 0 0 1 .024-.043l.244-.367a.089.089 0 0 1 .019-.02.046.046 0 0 1 .031-.009h.129l-.396.567zM4.644 8.448c.062.007.125.012.189.017.964-.374 1.779-.987 2.343-1.762s.854-1.677.832-2.594l-1.062-.923c.216.976.115 1.985-.292 2.915S5.551 7.843 4.643 8.448z"/><path fill="#2196f3" style="fill:var(--color2, #2196f3)" d="m4.265 8.405.029.005c.97-.603 1.71-1.445 2.123-2.417s.482-2.029.196-3.035L5.101 1.644c.612 1.08.858 2.289.71 3.486s-.684 2.333-1.546 3.275zM9.394 5.193C9.137 6.2 8.513 7.109 7.615 7.784a5.6 5.6 0 0 1-.845.527c.732-.187 1.404-.517 1.966-.965s.997-1.003 1.273-1.62l-.613-.532z"/><path fill="#2196f3" style="fill:var(--color2, #2196f3)" d="m9.153 5.044-.873-.759c-.017.865-.3 1.711-.82 2.448S6.202 8.074 5.323 8.481h.004c.196 0 .392-.01.586-.03.822-.291 1.548-.755 2.113-1.349s.952-1.301 1.127-2.057zM4.391 1.09 3.349.184c-.931.313-1.732.862-2.298 1.577S.181 3.322.178 4.19c.003.959.375 1.889 1.055 2.643s1.631 1.29 2.701 1.523c.956-1.011 1.515-2.261 1.597-3.568S5.213 2.186 4.39 1.09zM11.56 4.905c-.004-1.137-.525-2.227-1.451-3.031S7.929.617 6.62.613a5.523 5.523 0 0 0-1.769.286l6.379 5.542c.218-.49.33-1.011.33-1.536z"/></symbol><symbol id="icon-Client3_logo" viewBox="0 0 12 11"><path fill="#afb1b8" style="fill:var(--color4, #afb1b8)" d="m1.94 10.765.012.002c.004.001.007.004.01.006l.057.055a.466.466 0 0 1-.161.104.627.627 0 0 1-.228.037.62.62 0 0 1-.214-.035.44.44 0 0 1-.265-.249.498.498 0 0 1-.036-.194.451.451 0 0 1 .15-.346.519.519 0 0 1 .171-.099.682.682 0 0 1 .426-.003.546.546 0 0 1 .154.088l-.048.058c-.003.004-.007.008-.012.011s-.012.005-.019.004a.05.05 0 0 1-.021-.006l-.026-.016-.036-.02a.474.474 0 0 0-.481.058.333.333 0 0 0-.081.117.387.387 0 0 0-.029.154.4.4 0 0 0 .029.156.333.333 0 0 0 .198.188.433.433 0 0 0 .147.025.635.635 0 0 0 .087-.005.335.335 0 0 0 .188-.08.043.043 0 0 1 .027-.01zM3.589 10.49a.463.463 0 0 1-.147.343.49.49 0 0 1-.169.098.7.7 0 0 1-.434 0c-.063-.022-.12-.056-.168-.099s-.085-.095-.109-.151a.509.509 0 0 1 0-.387.445.445 0 0 1 .277-.247.686.686 0 0 1 .434 0c.063.022.121.056.169.099s.084.094.108.15c.026.062.04.128.039.194zm-.15 0a.412.412 0 0 0-.027-.155.324.324 0 0 0-.076-.116.33.33 0 0 0-.121-.073.502.502 0 0 0-.316 0 .338.338 0 0 0-.121.073.306.306 0 0 0-.077.116.458.458 0 0 0 0 .31.314.314 0 0 0 .198.189.517.517 0 0 0 .316 0 .338.338 0 0 0 .121-.073.324.324 0 0 0 .076-.116.412.412 0 0 0 .027-.155zM4.715 10.653l.015.035.016-.035a.29.29 0 0 1 .019-.034l.365-.576c.007-.01.014-.016.021-.018a.077.077 0 0 1 .03-.003h.108v.937h-.128v-.75l-.367.584c-.005.009-.012.016-.022.021s-.02.008-.031.008H4.72c-.011 0-.022-.003-.031-.008s-.017-.013-.021-.021l-.378-.588v.752h-.124v-.936h.108c.01-.001.02.001.03.003a.04.04 0 0 1 .02.018l.373.577c.007.011.014.022.019.033zM6.088 10.606v.351h-.143v-.936h.318a.71.71 0 0 1 .178.02.354.354 0 0 1 .126.058.234.234 0 0 1 .071.092.277.277 0 0 1 .024.12.265.265 0 0 1-.103.214.38.38 0 0 1-.126.062.625.625 0 0 1-.172.022l-.173-.002zm0-.1h.173a.412.412 0 0 0 .111-.014.24.24 0 0 0 .08-.04.173.173 0 0 0 .066-.141c.002-.026-.003-.052-.014-.076s-.028-.046-.05-.064a.305.305 0 0 0-.192-.05h-.173v.386zM8.007 10.959h-.113c-.011 0-.022-.003-.031-.009s-.014-.013-.019-.022l-.097-.226h-.488l-.101.226a.052.052 0 0 1-.018.021.05.05 0 0 1-.032.009h-.113l.428-.938h.149l.434.938zm-.707-.348h.403l-.17-.382a.58.58 0 0 1-.032-.088l-.016.049a.415.415 0 0 1-.016.04l-.169.381zM8.624 10.026c.009.004.016.01.021.017l.625.707v-.728h.128v.937h-.071c-.01 0-.02-.002-.029-.006s-.017-.01-.023-.017l-.624-.706V10.959h-.128v-.937h.076c.009 0 .018.001.026.004zM10.451 10.586v.372h-.143v-.372l-.395-.565h.128a.048.048 0 0 1 .031.008.076.076 0 0 1 .019.021l.247.364.026.043a.352.352 0 0 1 .018.04l.019-.04a.362.362 0 0 1 .024-.043l.244-.367a.089.089 0 0 1 .019-.02.046.046 0 0 1 .031-.009h.129l-.396.567zM4.644 8.448c.062.007.125.012.189.017.964-.374 1.779-.987 2.343-1.762s.854-1.677.832-2.594l-1.062-.923c.216.976.115 1.985-.292 2.915S5.551 7.843 4.643 8.448z"/><path fill="#afb1b8" style="fill:var(--color4, #afb1b8)" d="m4.265 8.405.029.005c.97-.603 1.71-1.445 2.123-2.417s.482-2.029.196-3.035L5.101 1.644c.612 1.08.858 2.289.71 3.486s-.684 2.333-1.546 3.275zM9.394 5.193C9.137 6.2 8.513 7.109 7.615 7.784a5.6 5.6 0 0 1-.845.527c.732-.187 1.404-.517 1.966-.965s.997-1.003 1.273-1.62l-.613-.532z"/><path fill="#afb1b8" style="fill:var(--color4, #afb1b8)" d="m9.153 5.044-.873-.759c-.017.865-.3 1.711-.82 2.448S6.202 8.074 5.323 8.481h.004c.196 0 .392-.01.586-.03.822-.291 1.548-.755 2.113-1.349s.952-1.301 1.127-2.057zM4.391 1.09 3.349.184c-.931.313-1.732.862-2.298 1.577S.181 3.322.178 4.19c.003.959.375 1.889 1.055 2.643s1.631 1.29 2.701 1.523c.956-1.011 1.515-2.261 1.597-3.568S5.213 2.186 4.39 1.09zM11.56 4.905c-.004-1.137-.525-2.227-1.451-3.031S7.929.617 6.62.613a5.523 5.523 0 0 0-1.769.286l6.379 5.542c.218-.49.33-1.011.33-1.536z"/></symbol><symbol id="icon-Client4b_logo" viewBox="0 0 22 11"><path fill="#2196f3" style="fill:var(--color2, #2196f3)" d="M3.443 3.432h-.001c-.628 0-1.137.452-1.137 1.011v.001c0 .558.509 1.011 1.137 1.011h.001c.628 0 1.137-.452 1.137-1.011v-.001c0-.558-.509-1.011-1.137-1.011zM11.837 3.109c-.002-.775-.349-1.518-.966-2.067S9.418.185 8.546.183c-.873.001-1.709.31-2.326.858s-.965 1.292-.966 2.067v4.275s6.583-.652 6.583-4.274v-.001zM0 8.787c.002.539.243 1.056.672 1.438s1.011.597 1.618.598c.607-.002 1.188-.217 1.617-.598s.671-.898.673-1.437V5.813S0 6.267 0 8.787zm2.29.533c-.119 0-.235-.031-.333-.09s-.175-.142-.221-.239c-.045-.097-.057-.205-.034-.308s.08-.198.164-.273.191-.125.307-.146c.116-.021.237-.01.346.03s.203.109.269.196a.492.492 0 0 1-.074.675c-.056.05-.122.089-.195.116s-.151.041-.23.041V9.32zM6.919 9.026h-.442v.457h-.23V8.366h.727v.186h-.497v.289h.442v.186zm1.106-.077c0 .11-.019.206-.058.289a.442.442 0 0 1-.416.26.447.447 0 0 1-.417-.257.663.663 0 0 1-.061-.285v-.055c0-.11.02-.207.059-.29a.447.447 0 0 1 .417-.261.45.45 0 0 1 .248.068c.073.044.129.109.168.193s.06.18.06.289v.05zm-.233-.05c0-.117-.021-.206-.063-.267s-.102-.091-.18-.091c-.077 0-.137.03-.179.091s-.063.148-.064.264v.054c0 .114.021.203.063.265s.102.094.181.094c.077 0 .137-.03.178-.091s.062-.149.063-.265v-.054zm.98.291c0-.043-.015-.077-.046-.1s-.086-.048-.166-.074a1.208 1.208 0 0 1-.19-.077c-.127-.069-.19-.161-.19-.277 0-.06.017-.114.051-.161s.083-.085.147-.111c.064-.027.136-.04.215-.04s.151.015.213.044a.327.327 0 0 1 .197.302h-.23c0-.051-.016-.091-.048-.119s-.077-.043-.136-.043c-.056 0-.1.012-.131.036s-.047.055-.047.094c0 .036.018.067.054.091s.091.048.162.069c.131.039.226.088.286.147s.09.131.09.218c0 .097-.037.173-.11.228s-.172.082-.295.082c-.086 0-.164-.016-.235-.047s-.125-.075-.162-.13a.331.331 0 0 1-.055-.19h.231c0 .123.074.185.221.185.055 0 .097-.011.128-.033s.046-.054.046-.094zM10 8.552h-.342v.931h-.23v-.931H9.09v-.186H10v.186zm.805.447h-.442v.299h.519v.185h-.749V8.366h.747v.186h-.517v.266h.442v.18zm.625.075h-.183v.409h-.23V8.366h.415c.132 0 .234.029.305.088s.107.142.107.249c0 .076-.017.14-.05.191s-.083.091-.15.121l.242.457v.011h-.247l-.209-.409zm-.184-.187h.186c.058 0 .103-.015.134-.044s.048-.07.048-.122c0-.053-.015-.094-.045-.124s-.075-.045-.137-.045h-.185v.335zm1.395.202v.394h-.23V8.366h.436c.084 0 .158.015.221.046a.341.341 0 0 1 .198.324c0 .109-.038.196-.113.259s-.178.094-.311.094h-.202zm0-.186h.206c.061 0 .107-.014.139-.043s.048-.07.048-.123c0-.055-.016-.099-.048-.133s-.077-.051-.134-.052h-.211v.351zm1.457.096h-.442v.299h.519v.185h-.749V8.366h.747v.186h-.517v.266h.442v.18zm1.068-.447h-.342v.931h-.23v-.931h-.338v-.186h.91v.186zm.804.447h-.442v.299h.519v.185h-.749V8.366h.747v.186h-.517v.266h.442v.18zm.625.075h-.183v.409h-.23V8.366h.415c.132 0 .234.029.305.088s.107.142.107.249c0 .076-.017.14-.05.191s-.083.091-.15.121l.242.457v.011h-.247l-.209-.409zm-.183-.187h.186c.058 0 .103-.015.134-.044s.048-.07.048-.122c0-.053-.015-.094-.045-.124s-.075-.045-.137-.045h-.185v.335zm1.353.303c0-.043-.015-.077-.046-.1s-.086-.048-.166-.074a1.208 1.208 0 0 1-.19-.077c-.127-.069-.19-.161-.19-.277 0-.06.017-.114.051-.161s.083-.085.147-.111c.064-.027.136-.04.215-.04s.151.015.213.044a.327.327 0 0 1 .197.302h-.23c0-.051-.016-.091-.048-.119s-.077-.043-.136-.043c-.056 0-.1.012-.131.036s-.047.055-.047.094c0 .036.018.067.054.091s.091.048.162.069c.131.039.226.088.286.147s.09.131.09.218c0 .097-.037.173-.11.228s-.172.082-.295.082c-.086 0-.164-.016-.235-.047s-.125-.075-.162-.13a.331.331 0 0 1-.055-.19h.231c0 .123.074.185.221.185.055 0 .097-.011.128-.033s.046-.054.046-.094z"/></symbol><symbol id="icon-Client4_logo" viewBox="0 0 22 11"><path fill="#afb1b8" style="fill:var(--color4, #afb1b8)" d="M3.443 3.432h-.001c-.628 0-1.137.452-1.137 1.011v.001c0 .558.509 1.011 1.137 1.011h.001c.628 0 1.137-.452 1.137-1.011v-.001c0-.558-.509-1.011-1.137-1.011zM11.837 3.109c-.002-.775-.349-1.518-.966-2.067S9.418.185 8.546.183c-.873.001-1.709.31-2.326.858s-.965 1.292-.966 2.067v4.275s6.583-.652 6.583-4.274v-.001zM0 8.787c.002.539.243 1.056.672 1.438s1.011.597 1.618.598c.607-.002 1.188-.217 1.617-.598s.671-.898.673-1.437V5.813S0 6.267 0 8.787zm2.29.533c-.119 0-.235-.031-.333-.09s-.175-.142-.221-.239c-.045-.097-.057-.205-.034-.308s.08-.198.164-.273.191-.125.307-.146c.116-.021.237-.01.346.03s.203.109.269.196a.492.492 0 0 1-.074.675c-.056.05-.122.089-.195.116s-.151.041-.23.041V9.32zM6.919 9.026h-.442v.457h-.23V8.366h.727v.186h-.497v.289h.442v.186zm1.106-.077c0 .11-.019.206-.058.289a.442.442 0 0 1-.416.26.447.447 0 0 1-.417-.257.663.663 0 0 1-.061-.285v-.055c0-.11.02-.207.059-.29a.447.447 0 0 1 .417-.261.45.45 0 0 1 .248.068c.073.044.129.109.168.193s.06.18.06.289v.05zm-.233-.05c0-.117-.021-.206-.063-.267s-.102-.091-.18-.091c-.077 0-.137.03-.179.091s-.063.148-.064.264v.054c0 .114.021.203.063.265s.102.094.181.094c.077 0 .137-.03.178-.091s.062-.149.063-.265v-.054zm.98.291c0-.043-.015-.077-.046-.1s-.086-.048-.166-.074a1.208 1.208 0 0 1-.19-.077c-.127-.069-.19-.161-.19-.277 0-.06.017-.114.051-.161s.083-.085.147-.111c.064-.027.136-.04.215-.04s.151.015.213.044a.327.327 0 0 1 .197.302h-.23c0-.051-.016-.091-.048-.119s-.077-.043-.136-.043c-.056 0-.1.012-.131.036s-.047.055-.047.094c0 .036.018.067.054.091s.091.048.162.069c.131.039.226.088.286.147s.09.131.09.218c0 .097-.037.173-.11.228s-.172.082-.295.082c-.086 0-.164-.016-.235-.047s-.125-.075-.162-.13a.331.331 0 0 1-.055-.19h.231c0 .123.074.185.221.185.055 0 .097-.011.128-.033s.046-.054.046-.094zM10 8.552h-.342v.931h-.23v-.931H9.09v-.186H10v.186zm.805.447h-.442v.299h.519v.185h-.749V8.366h.747v.186h-.517v.266h.442v.18zm.625.075h-.183v.409h-.23V8.366h.415c.132 0 .234.029.305.088s.107.142.107.249c0 .076-.017.14-.05.191s-.083.091-.15.121l.242.457v.011h-.247l-.209-.409zm-.184-.187h.186c.058 0 .103-.015.134-.044s.048-.07.048-.122c0-.053-.015-.094-.045-.124s-.075-.045-.137-.045h-.185v.335zm1.395.202v.394h-.23V8.366h.436c.084 0 .158.015.221.046a.341.341 0 0 1 .198.324c0 .109-.038.196-.113.259s-.178.094-.311.094h-.202zm0-.186h.206c.061 0 .107-.014.139-.043s.048-.07.048-.123c0-.055-.016-.099-.048-.133s-.077-.051-.134-.052h-.211v.351zm1.457.096h-.442v.299h.519v.185h-.749V8.366h.747v.186h-.517v.266h.442v.18zm1.068-.447h-.342v.931h-.23v-.931h-.338v-.186h.91v.186zm.804.447h-.442v.299h.519v.185h-.749V8.366h.747v.186h-.517v.266h.442v.18zm.625.075h-.183v.409h-.23V8.366h.415c.132 0 .234.029.305.088s.107.142.107.249c0 .076-.017.14-.05.191s-.083.091-.15.121l.242.457v.011h-.247l-.209-.409zm-.183-.187h.186c.058 0 .103-.015.134-.044s.048-.07.048-.122c0-.053-.015-.094-.045-.124s-.075-.045-.137-.045h-.185v.335zm1.353.303c0-.043-.015-.077-.046-.1s-.086-.048-.166-.074a1.208 1.208 0 0 1-.19-.077c-.127-.069-.19-.161-.19-.277 0-.06.017-.114.051-.161s.083-.085.147-.111c.064-.027.136-.04.215-.04s.151.015.213.044a.327.327 0 0 1 .197.302h-.23c0-.051-.016-.091-.048-.119s-.077-.043-.136-.043c-.056 0-.1.012-.131.036s-.047.055-.047.094c0 .036.018.067.054.091s.091.048.162.069c.131.039.226.088.286.147s.09.131.09.218c0 .097-.037.173-.11.228s-.172.082-.295.082c-.086 0-.164-.016-.235-.047s-.125-.075-.162-.13a.331.331 0 0 1-.055-.19h.231c0 .123.074.185.221.185.055 0 .097-.011.128-.033s.046-.054.046-.094z"/></symbol><symbol id="icon-Client5b_logo" viewBox="0 0 15 11"><path fill="#2196f3" style="fill:var(--color2, #2196f3)" d="M1.113 9.066a.34.34 0 0 1 .086.229c.003.054-.008.108-.031.158s-.058.095-.102.131a.61.61 0 0 1-.387.105h-.68V8.24h.666a.61.61 0 0 1 .369.096c.043.033.077.075.099.122s.033.098.03.15a.32.32 0 0 1-.077.222.367.367 0 0 1-.203.113c.09.015.172.059.23.124zm-.797-.219h.285a.293.293 0 0 0 .181-.048c.021-.018.038-.04.049-.064s.015-.051.013-.077c.002-.026-.002-.052-.013-.077s-.027-.047-.048-.065a.297.297 0 0 0-.186-.049h-.28v.38zm.493.556a.174.174 0 0 0 .067-.147.172.172 0 0 0-.068-.149.311.311 0 0 0-.193-.052H.317v.399h.302a.32.32 0 0 0 .191-.05zM2.474 9.689l-.37-.566h-.139v.566h-.319V8.24h.603a.63.63 0 0 1 .42.123.434.434 0 0 1 .044.599.5.5 0 0 1-.288.147l.394.579h-.346zm-.509-.764h.261c.181 0 .271-.073.271-.219.002-.03-.003-.06-.015-.088s-.029-.054-.052-.075a.297.297 0 0 0-.205-.059h-.264l.003.441zM4.215 9.397H3.58l-.112.292h-.334l.583-1.433h.361l.581 1.433h-.334l-.11-.292zm-.085-.219-.232-.612-.232.612h.464zM6.395 9.689h-.316l-.709-.985v.985h-.315V8.24h.315l.709.991V8.24h.316v1.449zM8.199 9.342a.666.666 0 0 1-.286.256.995.995 0 0 1-.445.091h-.563V8.24h.563c.154-.004.306.027.445.089a.647.647 0 0 1 .286.253.786.786 0 0 1 0 .76zm-.362-.035c.09-.096.14-.219.14-.346s-.05-.25-.14-.346a.584.584 0 0 0-.396-.123h-.22v.938h.22a.584.584 0 0 0 .396-.123zM4.413.179S8.494 1.59 8.408 3.631v3.453S4.33 5.672 4.415 3.631L4.413.179zM12.044 6.277a5.91 5.91 0 0 1 2.593-.875V4.321c-1.072.378-1.982 1.065-2.593 1.956z"/><path fill="#2196f3" style="fill:var(--color2, #2196f3)" d="M11.581 6.602c.631-1.163 1.725-2.061 3.056-2.508V.979s-5.812 2.01-5.69 4.917v4.916s.259-.09.666-.258c0-.157 0-.316.019-.475.12-1.35.821-2.6 1.948-3.477z"/><path fill="#2196f3" style="fill:var(--color2, #2196f3)" d="M11.028 8.429c.031-.341.099-.678.203-1.007a4.545 4.545 0 0 0-1.215 2.686 3.746 3.746 0 0 0-.015.283c.33-.145.714-.326 1.118-.539a4.669 4.669 0 0 1-.09-1.424zM11.259 8.446c-.039.431-.015.864.072 1.289 1.588-.87 3.372-2.214 3.304-3.839v-.142a5.42 5.42 0 0 0-3.021 1.293 4.502 4.502 0 0 0-.354 1.399z"/></symbol><symbol id="icon-Client5_logo" viewBox="0 0 15 11"><path fill="#afb1b8" style="fill:var(--color4, #afb1b8)" d="M1.113 9.066a.34.34 0 0 1 .086.229c.003.054-.008.108-.031.158s-.058.095-.102.131a.61.61 0 0 1-.387.105h-.68V8.24h.666a.61.61 0 0 1 .369.096c.043.033.077.075.099.122s.033.098.03.15a.32.32 0 0 1-.077.222.367.367 0 0 1-.203.113c.09.015.172.059.23.124zm-.797-.219h.285a.293.293 0 0 0 .181-.048c.021-.018.038-.04.049-.064s.015-.051.013-.077c.002-.026-.002-.052-.013-.077s-.027-.047-.048-.065a.297.297 0 0 0-.186-.049h-.28v.38zm.493.556a.174.174 0 0 0 .067-.147.172.172 0 0 0-.068-.149.311.311 0 0 0-.193-.052H.317v.399h.302a.32.32 0 0 0 .191-.05zM2.474 9.689l-.37-.566h-.139v.566h-.319V8.24h.603a.63.63 0 0 1 .42.123.434.434 0 0 1 .044.599.5.5 0 0 1-.288.147l.394.579h-.346zm-.509-.764h.261c.181 0 .271-.073.271-.219.002-.03-.003-.06-.015-.088s-.029-.054-.052-.075a.297.297 0 0 0-.205-.059h-.264l.003.441zM4.215 9.397H3.58l-.112.292h-.334l.583-1.433h.361l.581 1.433h-.334l-.11-.292zm-.085-.219-.232-.612-.232.612h.464zM6.395 9.689h-.316l-.709-.985v.985h-.315V8.24h.315l.709.991V8.24h.316v1.449zM8.199 9.342a.666.666 0 0 1-.286.256.995.995 0 0 1-.445.091h-.563V8.24h.563c.154-.004.306.027.445.089a.647.647 0 0 1 .286.253.786.786 0 0 1 0 .76zm-.362-.035c.09-.096.14-.219.14-.346s-.05-.25-.14-.346a.584.584 0 0 0-.396-.123h-.22v.938h.22a.584.584 0 0 0 .396-.123zM4.413.179S8.494 1.59 8.408 3.631v3.453S4.33 5.672 4.415 3.631L4.413.179zM12.044 6.277a5.91 5.91 0 0 1 2.593-.875V4.321c-1.072.378-1.982 1.065-2.593 1.956z"/><path fill="#afb1b8" style="fill:var(--color4, #afb1b8)" d="M11.581 6.602c.631-1.163 1.725-2.061 3.056-2.508V.979s-5.812 2.01-5.69 4.917v4.916s.259-.09.666-.258c0-.157 0-.316.019-.475.12-1.35.821-2.6 1.948-3.477z"/><path fill="#afb1b8" style="fill:var(--color4, #afb1b8)" d="M11.028 8.429c.031-.341.099-.678.203-1.007a4.545 4.545 0 0 0-1.215 2.686 3.746 3.746 0 0 0-.015.283c.33-.145.714-.326 1.118-.539a4.669 4.669 0 0 1-.09-1.424zM11.259 8.446c-.039.431-.015.864.072 1.289 1.588-.87 3.372-2.214 3.304-3.839v-.142a5.42 5.42 0 0 0-3.021 1.293 4.502 4.502 0 0 0-.354 1.399z"/></symbol><symbol id="icon-Client6b_logo" viewBox="0 0 23 11"><path fill="#2196f3" style="fill:var(--color2, #2196f3)" d="M11.593 5.233a.724.724 0 0 1-.148-.486v-.705c0-.216.049-.38.147-.493s.266-.168.505-.168c.224 0 .383.048.478.143a.58.58 0 0 1 .141.422v.166h-.401v-.168a.818.818 0 0 0-.012-.164.163.163 0 0 0-.057-.098.228.228 0 0 0-.145-.038.247.247 0 0 0-.153.04.185.185 0 0 0-.066.108.789.789 0 0 0-.016.174v.855a.439.439 0 0 0 .051.24c.02.025.048.046.08.058s.068.017.103.013a.215.215 0 0 0 .142-.039.172.172 0 0 0 .06-.104.895.895 0 0 0 .012-.171v-.174h.401v.158a.642.642 0 0 1-.139.443c-.092.105-.249.157-.48.157s-.405-.056-.504-.172zM13.263 5.24c-.101-.11-.152-.27-.152-.481v-.741c0-.209.051-.368.152-.475s.271-.161.508-.161c.236 0 .404.054.506.161s.153.266.153.475v.741c0 .209-.051.37-.154.48s-.271.166-.504.166c-.233 0-.406-.056-.508-.165zm.695-.178a.413.413 0 0 0 .048-.219v-.908a.406.406 0 0 0-.047-.215c-.02-.026-.049-.046-.082-.059s-.07-.017-.106-.013c-.036-.004-.073 0-.106.013s-.062.033-.082.059a.388.388 0 0 0-.048.215v.912a.402.402 0 0 0 .048.219c.023.023.052.042.085.054s.068.019.103.019c.036 0 .071-.007.103-.019s.061-.031.085-.054v-.004zM14.912 3.404h.432l.325 1.368.332-1.368h.42l.042 1.974h-.311l-.033-1.372-.321 1.372h-.249l-.332-1.377-.031 1.377h-.314l.039-1.974zM16.947 3.404h.673c.388 0 .581.187.581.561 0 .358-.204.537-.612.536h-.229v.877h-.415l.002-1.974zm.575.843a.313.313 0 0 0 .228-.063.318.318 0 0 0 .06-.223.64.64 0 0 0-.02-.179c-.006-.02-.016-.038-.031-.054s-.032-.03-.052-.04a.43.43 0 0 0-.185-.032h-.161v.59h.161zM18.8 3.404h.446l.458 1.974h-.387l-.091-.455h-.398l-.093.455h-.393l.458-1.974zm.381 1.29-.155-.829-.155.829h.311zM20.073 3.404h.291l.556 1.126V3.404h.345v1.974h-.277l-.56-1.176v1.176h-.356l.001-1.974zM22.072 4.625l-.463-1.219h.389l.282.783.265-.783h.381l-.457 1.219v.753h-.399v-.753zM12.234 6.241v.103h-.339v.802h-.142v-.802h-.34v-.103h.821zM13.296 7.147h-.11c-.011.001-.022-.002-.031-.009s-.015-.012-.018-.021l-.098-.215h-.47l-.098.215a.06.06 0 0 1-.015.024.056.056 0 0 1-.031.009h-.11l.415-.905h.145l.42.902zm-.688-.337H13l-.166-.368a.666.666 0 0 1-.031-.085l-.016.048-.015.038-.164.368zM14.012 7.058h.078a.665.665 0 0 0 .126-.027l.056-.022v-.204h-.166c-.004 0-.008 0-.012-.002s-.007-.003-.01-.006l-.006-.007a.024.024 0 0 1-.002-.009v-.07h.322v.347a.592.592 0 0 1-.175.074.732.732 0 0 1-.104.019c-.04.004-.081.006-.121.006a.61.61 0 0 1-.209-.034.514.514 0 0 1-.166-.095.433.433 0 0 1-.107-.143.455.455 0 0 1-.038-.188.41.41 0 0 1 .144-.332.494.494 0 0 1 .166-.094.697.697 0 0 1 .223-.034c.039 0 .077.003.115.008a.548.548 0 0 1 .254.106l-.04.056a.038.038 0 0 1-.032.017.06.06 0 0 1-.026-.007l-.041-.022a.5.5 0 0 0-.237-.052.478.478 0 0 0-.16.025.316.316 0 0 0-.199.185.425.425 0 0 0 0 .302.35.35 0 0 0 .204.186.455.455 0 0 0 .164.018zM15.336 7.043h.453v.103h-.592v-.905h.142l-.003.802zM16.261 7.147h-.142v-.905h.142v.905zM16.789 6.245c.008.004.016.01.022.016l.607.683v-.706h.124v.909h-.071c-.011.001-.021-.001-.031-.005s-.016-.01-.022-.017l-.606-.682v.704h-.119v-.906h.074c.008 0 .016.001.023.004zM18.587 6.241v.1h-.503v.299h.408v.096h-.408v.309h.503v.1h-.649v-.903h.649zM3.706.649l6.305 1.546v5.416L3.706 6.066V.649zM3.302.187v6.142l7.113 1.744V1.932L3.302.187z"/><path fill="#2196f3" style="fill:var(--color2, #2196f3)" d="M7.114 10.925 0 9.179V3.038l7.114 1.745v6.142zM3.42.58l6.223 1.526-2.647 2.286L.772 2.865 3.419.58zM3.302.187 0 3.037l7.114 1.745 3.301-2.85L3.302.187zM7.515 10.579l2.901-2.505-2.901-.712v3.217z"/></symbol><symbol id="icon-Client6_logo" viewBox="0 0 23 11"><path fill="#afb1b8" style="fill:var(--color4, #afb1b8)" d="M11.593 5.233a.724.724 0 0 1-.148-.486v-.705c0-.216.049-.38.147-.493s.266-.168.505-.168c.224 0 .383.048.478.143a.58.58 0 0 1 .141.422v.166h-.401v-.168a.818.818 0 0 0-.012-.164.163.163 0 0 0-.057-.098.228.228 0 0 0-.145-.038.247.247 0 0 0-.153.04.185.185 0 0 0-.066.108.789.789 0 0 0-.016.174v.855a.439.439 0 0 0 .051.24c.02.025.048.046.08.058s.068.017.103.013a.215.215 0 0 0 .142-.039.172.172 0 0 0 .06-.104.895.895 0 0 0 .012-.171v-.174h.401v.158a.642.642 0 0 1-.139.443c-.092.105-.249.157-.48.157s-.405-.056-.504-.172zM13.263 5.24c-.101-.11-.152-.27-.152-.481v-.741c0-.209.051-.368.152-.475s.271-.161.508-.161c.236 0 .404.054.506.161s.153.266.153.475v.741c0 .209-.051.37-.154.48s-.271.166-.504.166c-.233 0-.406-.056-.508-.165zm.695-.178a.413.413 0 0 0 .048-.219v-.908a.406.406 0 0 0-.047-.215c-.02-.026-.049-.046-.082-.059s-.07-.017-.106-.013c-.036-.004-.073 0-.106.013s-.062.033-.082.059a.388.388 0 0 0-.048.215v.912a.402.402 0 0 0 .048.219c.023.023.052.042.085.054s.068.019.103.019c.036 0 .071-.007.103-.019s.061-.031.085-.054v-.004zM14.912 3.404h.432l.325 1.368.332-1.368h.42l.042 1.974h-.311l-.033-1.372-.321 1.372h-.249l-.332-1.377-.031 1.377h-.314l.039-1.974zM16.947 3.404h.673c.388 0 .581.187.581.561 0 .358-.204.537-.612.536h-.229v.877h-.415l.002-1.974zm.575.843a.313.313 0 0 0 .228-.063.318.318 0 0 0 .06-.223.64.64 0 0 0-.02-.179c-.006-.02-.016-.038-.031-.054s-.032-.03-.052-.04a.43.43 0 0 0-.185-.032h-.161v.59h.161zM18.8 3.404h.446l.458 1.974h-.387l-.091-.455h-.398l-.093.455h-.393l.458-1.974zm.381 1.29-.155-.829-.155.829h.311zM20.073 3.404h.291l.556 1.126V3.404h.345v1.974h-.277l-.56-1.176v1.176h-.356l.001-1.974zM22.072 4.625l-.463-1.219h.389l.282.783.265-.783h.381l-.457 1.219v.753h-.399v-.753zM12.234 6.241v.103h-.339v.802h-.142v-.802h-.34v-.103h.821zM13.296 7.147h-.11c-.011.001-.022-.002-.031-.009s-.015-.012-.018-.021l-.098-.215h-.47l-.098.215a.06.06 0 0 1-.015.024.056.056 0 0 1-.031.009h-.11l.415-.905h.145l.42.902zm-.688-.337H13l-.166-.368a.666.666 0 0 1-.031-.085l-.016.048-.015.038-.164.368zM14.012 7.058h.078a.665.665 0 0 0 .126-.027l.056-.022v-.204h-.166c-.004 0-.008 0-.012-.002s-.007-.003-.01-.006l-.006-.007a.024.024 0 0 1-.002-.009v-.07h.322v.347a.592.592 0 0 1-.175.074.732.732 0 0 1-.104.019c-.04.004-.081.006-.121.006a.61.61 0 0 1-.209-.034.514.514 0 0 1-.166-.095.433.433 0 0 1-.107-.143.455.455 0 0 1-.038-.188.41.41 0 0 1 .144-.332.494.494 0 0 1 .166-.094.697.697 0 0 1 .223-.034c.039 0 .077.003.115.008a.548.548 0 0 1 .254.106l-.04.056a.038.038 0 0 1-.032.017.06.06 0 0 1-.026-.007l-.041-.022a.5.5 0 0 0-.237-.052.478.478 0 0 0-.16.025.316.316 0 0 0-.199.185.425.425 0 0 0 0 .302.35.35 0 0 0 .204.186.455.455 0 0 0 .164.018zM15.336 7.043h.453v.103h-.592v-.905h.142l-.003.802zM16.261 7.147h-.142v-.905h.142v.905zM16.789 6.245c.008.004.016.01.022.016l.607.683v-.706h.124v.909h-.071c-.011.001-.021-.001-.031-.005s-.016-.01-.022-.017l-.606-.682v.704h-.119v-.906h.074c.008 0 .016.001.023.004zM18.587 6.241v.1h-.503v.299h.408v.096h-.408v.309h.503v.1h-.649v-.903h.649zM3.706.649l6.305 1.546v5.416L3.706 6.066V.649zM3.302.187v6.142l7.113 1.744V1.932L3.302.187z"/><path fill="#afb1b8" style="fill:var(--color4, #afb1b8)" d="M7.114 10.925 0 9.179V3.038l7.114 1.745v6.142zM3.42.58l6.223 1.526-2.647 2.286L.772 2.865 3.419.58zM3.302.187 0 3.037l7.114 1.745 3.301-2.85L3.302.187zM7.515 10.579l2.901-2.505-2.901-.712v3.217z"/></symbol></defs></svg>